<?xml version="1.0" encoding="utf-8"?>
<!-- Generator: Adobe Illustrator 16.0.0, SVG Export Plug-In . SVG Version: 6.00 Build 0)  -->
<!DOCTYPE svg PUBLIC "-//W3C//DTD SVG 1.1//EN" "http://www.w3.org/Graphics/SVG/1.1/DTD/svg11.dtd">
<svg version="1.1" id="Layer_1" xmlns="http://www.w3.org/2000/svg" xmlns:xlink="http://www.w3.org/1999/xlink" x="0px" y="0px"
	 width="412px" height="412px" viewBox="50 50 412 412" enable-background="new 50 50 412 412" xml:space="preserve">
<path id="twitter-2-icon" fill="#F4F4F4" d="M50,50v412h412V50H50z M370.942,207.125c3.553,79.059-55.408,167.203-159.769,167.203
	c-31.743,0-61.289-9.305-86.163-25.253c29.82,3.515,59.585-4.759,83.217-23.278c-24.596-0.453-45.356-16.703-52.508-39.035
	c8.808,1.684,17.473,1.19,25.383-0.962c-27.03-5.433-45.692-29.784-45.083-55.826c7.577,4.211,16.245,6.74,25.46,7.032
	c-25.034-16.73-32.12-49.786-17.396-75.045c27.723,34.006,69.143,56.385,115.857,58.729c-8.199-35.16,18.474-69.019,54.755-69.019
	c16.168,0,30.775,6.825,41.028,17.75c12.805-2.52,24.833-7.198,35.694-13.639c-4.197,13.126-13.11,24.141-24.715,31.098
	c11.37-1.357,22.204-4.379,32.284-8.851C391.454,189.301,381.926,199.201,370.942,207.125z"/>
</svg>
